{"title":"The Victorias Secret Fashion Show full hdtv rip","uid":6001038,"size":4447458660,"categoryP":"video","categoryS":"hd___tv_shows","magnet":"?xt=urn:btih:137476adc1d2262302f16b027655c728ac627220&amp;dn=The+Victorias+Secret+Fashion+Show+full+hdtv+rip&amp;tr=udp%3A%2F%2Ftracker.openbittorrent.com%3A80&amp;tr=udp%3A%2F%2Fopen.demonii.com%3A1337&amp;tr=udp%3A%2F%2Ftracker.coppersurfer.tk%3A6969&amp;tr=udp%3A%2F%2Fexodus.desync.com%3A6969","seeders":0,"leechers":1,"uploader":"blisbell","files":1,"time":1291183459,"description":"Format                           : MPEG Video\nFormat version                   : Version 2\nFormat profile                   : Main@High\nFormat settings, BVOP            : Yes\nFormat settings, Matrix          : Default\nFormat settings, GOP             : M=3, N=15\nCodec ID                         : 2\nDuration                         : 40mn 31s\nBit rate mode                    : Constant\nBit rate                         : 13.8 Mbps\nWidth                            : 1 920 pixels\nHeight                           : 1 080 pixels\nDisplay aspect ratio             : 16:9\nFrame rate                       : 29.970 fps\nStandard                         : Component\nColor space                      : YUV\nChroma subsampling               : 4:2:0\nBit depth                        : 8 bits\nScan type                        : Interlaced\nScan order                       : Top Field First\nCompression mode                 : Lossy\nBits/(Pixel*Frame)               : 0.223\nStream size                      : 3.83 GiB (92%)\n\nFormat                           : AC-3\nFormat/Info                      : Audio Coding 3\nMode extension                   : CM (complete main)\nCodec ID                         : 129\nDuration                         : 40mn 30s\nBit rate mode                    : Constant\nBit rate                         : 384 Kbps\nChannel(s)                       : 6 channels\nChannel positions                : Front: L C R, Side: L R, LFE\nSampling rate                    : 48.0 KHz\nBit depth                        : 16 bits\nCompression mode                 : Lossy\nVideo delay                      : -46ms\nStream size                      : 111 MiB (3%)\nLanguage                         : English","torrent":{"xt":"urn:btih:137476adc1d2262302f16b027655c728ac627220","amp;dn":"The+Victorias+Secret+Fashion+Show+full+hdtv+rip","amp;tr":["udp%3A%2F%2Ftracker.openbittorrent.com%3A80","udp%3A%2F%2Fopen.demonii.com%3A1337","udp%3A%2F%2Ftracker.coppersurfer.tk%3A6969","udp%3A%2F%2Fexodus.desync.com%3A6969"],"infoHash":"137476adc1d2262302f16b027655c728ac627220","infoHashBuffer":{"type":"Buffer","data":[19,116,118,173,193,210,38,35,2,241,107,2,118,85,199,40,172,98,114,32]},"announce":[],"urlList":[]}}